<?xml version="1.0" encoding="UTF-8"?>
<svg id="Warstwa_2" xmlns="http://www.w3.org/2000/svg" viewBox="0 0 110 92">
  <defs>
    <style>
      .cls-1 {
        fill: #1d1d1b;
      }

      .cls-2 {
        fill: #fff;
      }
    </style>
  </defs>
  <g id="Vector2">
    <rect class="cls-1" width="110" height="92" rx="15.69" ry="15.69"/>
    <g>
      <polygon class="cls-2" points="26.05 9.01 26.05 78.17 38.93 77.98 38.74 59.89 58.42 78.17 77.12 78.17 47.57 50.54 100.19 9.01 78.2 9.01 38.64 39.64 38.64 9.01 26.05 9.01"/>
      <path class="cls-2" d="M77.66,43.59v11.09l15.41.47v6.2c-2.24,1.29-5.2,2.7-8.82,3.74-5.34,1.54-10.01,1.69-13.26,1.52,3.92,3.95,7.83,7.89,11.75,11.84,3.71-.22,9.05-.98,14.94-3.48,3.69-1.56,6.66-3.41,8.93-5.07v-26.31h-28.94Z"/>
    </g>
    <path class="cls-2" d="M6.39,57.64c-.45,2.26-.14,4.6-.14,7.11h16.61v-4.99c-.14-.75-.14-1.48-.45-2.12-.72-3.23-4.24-5.57-8.03-5.57s-7.41,2.23-8,5.57ZM16.03,55.15c.59.14,1.14.36,1.59.61.33.2.64.42.89.72.14.11.28.25.39.42s.22.31.31.47c.56,1.12.64,2.59.31,4.6h-10.37c-.06-.33-.08-.7-.11-1.03-.06-.84-.06-1.64.11-2.4.03-.14.08-.28.11-.42.03-.11.08-.25.14-.36v-.03c.28-.59.67-1.12,1.28-1.62.2-.17.42-.33.67-.47.2-.11.39-.22.61-.31,1.2-.45,2.73-.5,4.07-.2Z"/>
    <polygon class="cls-2" points="19.78 36.89 22.7 36.89 22.7 47.21 6.08 47.21 6.08 37.01 8.99 37.01 8.99 44.47 12.93 44.47 12.93 37.88 15.84 37.88 15.84 44.35 19.78 44.35 19.78 36.89"/>
    <path class="cls-2" d="M6.22,18.49c2.04.75,4.23,1.37,6.41,2.11,3.06,1.12,6.12,2.24,9.04,3.36.58.25,1.02.87,1.02,1.49.15.62.29,1.49-.73,1.86-5.25,1.87-10.5,3.61-15.75,5.47q-.58-2.86,2.04-3.73c3.21-.99,6.41-2.11,9.48-3.11.15,0,.15-.12.58-.37-2.04-.62-3.94-1.37-5.69-1.99-1.46-.5-2.92-.99-4.37-1.37q-2.77-.99-2.04-3.73Z"/>
  </g>
</svg>